<svg width="448" height="512" viewBox="0 0 448 512" fill="none" xmlns="http://www.w3.org/2000/svg">
<g clip-path="url(#clip0)">
<path d="M350.85 129C376.82 133.67 398.12 147.67 414.77 171C429.42 191.67 439.41 217.67 444.73 249C449.4 277.67 449.05 306.33 443.73 335C435.74 382.33 419.76 422 395.79 454C367.15 492.67 331.2 512 287.92 512C277.26 512 265.62 508.67 252.96 502C244.3 496.67 234.65 494 223.99 494C213.33 494 203.69 496.67 195.02 502C182.36 508.67 170.72 512 160.06 512C116.78 512 80.83 492.67 52.19 454C28.22 422 12.24 382.33 4.25005 335C-1.06995 306.33 -1.41995 277.67 3.25005 249C8.57005 217.67 18.56 191.67 33.21 171C49.86 147.67 71.16 133.67 97.13 129C113.11 126.33 135.08 128.67 163.05 136C187.02 142.67 207.33 150.67 223.98 160C240.63 150.67 260.94 142.67 284.91 136C312.89 128.67 334.87 126.33 350.85 129Z" fill="#DB3D3D"/>
<path d="M311.897 88C302.577 96.67 290.248 103 274.938 107C264.278 110.33 252.638 112 239.978 112L224.998 111C223.668 101.67 223.668 91 224.998 79C227.668 55 235.318 36.67 247.968 24C257.288 15.33 269.617 9 284.927 5C295.587 1.67 307.227 0 319.887 0L334.867 1L335.867 16C335.867 28.67 334.198 40.33 330.878 51C326.888 66.33 320.567 78.67 311.897 88Z" fill="#42B440"/>
</g>
<defs>
<clipPath id="clip0">
<rect width="448" height="512" fill="white"/>
</clipPath>
</defs>
</svg>
